<svg id="Group_279" data-name="Group 279" xmlns="http://www.w3.org/2000/svg" xmlns:xlink="http://www.w3.org/1999/xlink" width="227.833" height="227.915" viewBox="0 0 227.833 227.915">
  <defs>
    <clipPath id="clip-path">
      <rect id="Rectangle_70" data-name="Rectangle 70" width="227.833" height="227.915" fill="none"/>
    </clipPath>
    <clipPath id="clip-path-2">
      <rect id="Rectangle_71" data-name="Rectangle 71" width="35.914" height="53.685" fill="none"/>
    </clipPath>
  </defs>
  <g id="Group_147" data-name="Group 147">
    <g id="Group_146" data-name="Group 146" clip-path="url(#clip-path)">
      <path id="Path_37" data-name="Path 37" d="M227.833,113.959A113.917,113.917,0,1,1,113.917,0,113.936,113.936,0,0,1,227.833,113.959" transform="translate(0 -0.001)" fill="#0f7c11"/>
      <path id="Path_38" data-name="Path 38" d="M.078,114.161A113.936,113.936,0,0,1,113.557,0c62.629-.324,114.2,50.824,114.3,113.37.105,63.242-50.846,114.5-113.851,114.544C51.286,227.955.2,176.95.078,114.161M6,113.616c-.1,59.892,48.048,108.43,107.636,108.521,59.626.09,108.382-48.394,108.475-107.873A108.056,108.056,0,0,0,6,113.616" transform="translate(-0.024 0)" fill="#fff4e6"/>
      <path id="Path_39" data-name="Path 39" d="M98.335,276.86l-.917-.676,1.07.49-.152.187" transform="translate(-30.322 -85.965)" fill="#323131"/>
    </g>
  </g>
  <g id="Group_149" data-name="Group 149" transform="translate(95.96 87.116)">
    <g id="Group_148" data-name="Group 148" clip-path="url(#clip-path-2)">
      <path id="Path_40" data-name="Path 40" d="M149.076,155.341a7.36,7.36,0,0,1,5.792,6.235l2.6,18.374,2.6-18.374a7.359,7.359,0,0,1,5.792-6.235l9.165-1.83-9.165-1.83a7.36,7.36,0,0,1-5.792-6.235l-2.6-18.374-2.6,18.374a7.36,7.36,0,0,1-5.792,6.235l-9.165,1.83Z" transform="translate(-139.508 -126.668)" fill="#fff4e6"/>
      <path id="Path_41" data-name="Path 41" d="M149.076,155.341a7.36,7.36,0,0,1,5.792,6.235l2.6,18.374,2.6-18.374a7.359,7.359,0,0,1,5.792-6.235l9.165-1.83-9.165-1.83a7.36,7.36,0,0,1-5.792-6.235l-2.6-18.374-2.6,18.374a7.36,7.36,0,0,1-5.792,6.235l-9.165,1.83Z" transform="translate(-139.508 -126.668)" fill="#fff4e6"/>
    </g>
  </g>
  <text id="D" transform="matrix(0.678, 0.735, -0.735, 0.678, 31.454, 151.725)" fill="#fff4e6" font-size="43" font-family="Beastly-12Point, Beastly"><tspan x="0" y="0">D</tspan></text>
  <text id="e" transform="translate(59.926 179.947) rotate(24.48)" fill="#fff4e6" font-size="43" font-family="Beastly-12Point, Beastly"><tspan x="0" y="0">e</tspan></text>
  <text id="s" transform="translate(92.222 192.984) rotate(2.159)" fill="#fff4e6" font-size="43" font-family="Beastly-12Point, Beastly"><tspan x="0" y="0">s</tspan></text>
  <text id="i" transform="translate(123.565 191.64) rotate(-14.471)" fill="#fff4e6" font-size="42" font-family="Beastly-12Point, Beastly"><tspan x="0" y="0">i</tspan></text>
  <text id="g" transform="translate(143.477 186.604) rotate(-29.567)" fill="#fff4e6" font-size="42" font-family="Beastly-12Point, Beastly"><tspan x="0" y="0">g</tspan></text>
  <text id="n" transform="translate(172.638 169.272) rotate(-51.305)" fill="#fff4e6" font-size="42" font-family="Beastly-12Point, Beastly"><tspan x="0" y="0">n</tspan></text>
  <text id="G-2" data-name="G" transform="matrix(0.724, -0.69, 0.69, 0.724, 45.31, 88.136)" fill="#fff4e6" font-size="37" font-family="Beastly-12Point, Beastly"><tspan x="0" y="0">G</tspan></text>
  <text id="r" transform="translate(65.328 68.511) rotate(-29.918)" fill="#fff4e6" font-size="36" font-family="Beastly-12Point, Beastly"><tspan x="0" y="0">r</tspan></text>
  <text id="a" transform="matrix(0.958, -0.288, 0.288, 0.958, 79.381, 60.781)" fill="#fff4e6" font-size="37" font-family="Beastly-12Point, Beastly"><tspan x="0" y="0">a</tspan></text>
  <text id="p" transform="translate(103.022 52.442) rotate(0.548)" fill="#fff4e6" font-size="36" font-family="Beastly-12Point, Beastly"><tspan x="0" y="0">p</tspan></text>
  <text id="h" transform="translate(127.112 53.455) rotate(18.302)" fill="#fff4e6" font-size="37" font-family="Beastly-12Point, Beastly"><tspan x="0" y="0">h</tspan></text>
  <text id="i-2" data-name="i" transform="translate(150.458 61.792) rotate(31.215)" fill="#fff4e6" font-size="37" font-family="Beastly-12Point, Beastly"><tspan x="0" y="0">i</tspan></text>
  <text id="c" transform="matrix(0.733, 0.68, -0.68, 0.733, 162.589, 67.265)" fill="#fff4e6" font-size="36" font-family="Beastly-12Point, Beastly"><tspan x="0" y="0">c</tspan></text>
</svg>
