<svg id="Group_42" data-name="Group 42" xmlns="http://www.w3.org/2000/svg" xmlns:xlink="http://www.w3.org/1999/xlink" width="360.465" height="343.627" viewBox="0 0 360.465 343.627">
  <defs>
    <clipPath id="clip-path">
      <rect id="Rectangle_25" data-name="Rectangle 25" width="360.465" height="343.627" fill="none" stroke="#fff4e6" stroke-linecap="round" stroke-width="1"/>
    </clipPath>
  </defs>
  <g id="Group_38" data-name="Group 38" clip-path="url(#clip-path)">
    <path id="Path_4" data-name="Path 4" d="M348.016,174.14l-49.289,28.181a7.454,7.454,0,0,0-3.1,9.531l23.312,51.779A7.453,7.453,0,0,1,311.33,274.1l-56.458-6.2a7.455,7.455,0,0,0-8.113,5.9l-11.526,55.6a7.454,7.454,0,0,1-12.314,4L180.9,295.177a7.454,7.454,0,0,0-10.03,0l-42.019,38.216a7.454,7.454,0,0,1-12.314-4l-11.526-55.6a7.454,7.454,0,0,0-8.113-5.9L40.44,274.1a7.453,7.453,0,0,1-7.611-10.467l23.312-51.779a7.453,7.453,0,0,0-3.1-9.531L3.753,174.14a7.454,7.454,0,0,1,0-12.941l49.292-28.181a7.454,7.454,0,0,0,3.1-9.531L32.829,71.709A7.453,7.453,0,0,1,40.44,61.242L96.9,67.44a7.454,7.454,0,0,0,8.113-5.9l11.526-55.6a7.454,7.454,0,0,1,12.314-4L170.87,40.162a7.454,7.454,0,0,0,10.03,0L222.919,1.946a7.454,7.454,0,0,1,12.314,4l11.526,55.6a7.456,7.456,0,0,0,8.113,5.9l56.458-6.2a7.453,7.453,0,0,1,7.611,10.467l-23.312,51.779a7.455,7.455,0,0,0,3.1,9.531L348.016,161.2a7.454,7.454,0,0,1,0,12.941" transform="translate(4.347 4.144)" fill="none" stroke="#fff4e6" stroke-linecap="round" stroke-width="1"/>
  </g>
</svg>
