<svg xmlns="http://www.w3.org/2000/svg" xmlns:xlink="http://www.w3.org/1999/xlink" width="77.796" height="74.162" viewBox="0 0 77.796 74.162">
  <defs>
    <clipPath id="clip-path">
      <rect id="Rectangle_25" data-name="Rectangle 25" width="77.796" height="74.162" fill="#fff4e6"/>
    </clipPath>
  </defs>
  <g id="Group_38" data-name="Group 38" clip-path="url(#clip-path)">
    <path id="Path_4" data-name="Path 4" d="M76.966,38.512l-10.9,6.232a1.649,1.649,0,0,0-.685,2.108L70.536,58.3a1.648,1.648,0,0,1-1.683,2.315L56.366,59.247a1.649,1.649,0,0,0-1.794,1.3l-2.549,12.3a1.649,1.649,0,0,1-2.723.885L40.007,65.28a1.649,1.649,0,0,0-2.218,0L28.5,73.732a1.649,1.649,0,0,1-2.723-.885l-2.549-12.3a1.648,1.648,0,0,0-1.794-1.3L8.944,60.618A1.648,1.648,0,0,1,7.26,58.3l5.155-11.451a1.648,1.648,0,0,0-.685-2.108L.83,38.512a1.648,1.648,0,0,1,0-2.862l10.9-6.232a1.649,1.649,0,0,0,.685-2.108L7.26,15.859a1.648,1.648,0,0,1,1.683-2.315L21.43,14.915a1.648,1.648,0,0,0,1.794-1.3l2.549-12.3A1.649,1.649,0,0,1,28.5.43l9.293,8.452a1.649,1.649,0,0,0,2.218,0L49.3.43a1.649,1.649,0,0,1,2.723.885l2.549,12.3a1.649,1.649,0,0,0,1.794,1.3l12.486-1.371a1.648,1.648,0,0,1,1.683,2.315L65.38,27.31a1.649,1.649,0,0,0,.685,2.108l10.9,6.232a1.648,1.648,0,0,1,0,2.862" transform="translate(0 0)" fill="#fff4e6"/>
  </g>
</svg>
